<svg xmlns="http://www.w3.org/2000/svg" xmlns:xlink="http://www.w3.org/1999/xlink" width="47.328" height="32.243" viewBox="0 0 47.328 32.243"><defs><style>.a{fill:url(#a);}.b{fill:url(#b);}.c{fill:url(#c);}</style><linearGradient id="a" x1="0.507" y1="1.291" x2="0.507" y2="-0.016" gradientUnits="objectBoundingBox"><stop offset="0.369" stop-color="#f05d60"/><stop offset="1" stop-color="#8b3991"/></linearGradient><linearGradient id="b" x1="1.298" y1="0.743" x2="-0.326" y2="0.251" gradientUnits="objectBoundingBox"><stop offset="0.252" stop-color="#f05d60"/><stop offset="1" stop-color="#8b3991"/></linearGradient><linearGradient id="c" x1="1.003" y1="0.178" x2="-0.047" y2="1.07" xlink:href="#b"/></defs><g transform="translate(0 -11.965)"><path class="a" d="M39.694,52.166c1.085,0,1.915-.575,1.915-1.342v-7.8c0-.767-.83-1.342-1.915-1.342s-1.915.575-1.915,1.342v7.8C37.778,51.591,38.672,52.166,39.694,52.166Z" transform="translate(-10.116 -7.957)"/><path class="b" d="M14.319,11.991C5.763,12.374-.366,18.7.017,27.269s6.9,13.808,15.451,13.36a11.979,11.979,0,0,0,9.577-4.858L20.64,32.447A9.166,9.166,0,0,1,15.4,34.684c-4.661.256-7.853-3.2-8.045-7.735-.255-4.6,2.554-8.246,7.279-8.5,4.533-.256,7.662,3,7.981,7.479a3.644,3.644,0,0,0,3.831,3.2,3.738,3.738,0,0,0,3.512-3.58C29.451,17.041,22.81,11.543,14.319,11.991Z" transform="translate(0 0)"/><path class="c" d="M27.808,35.449c3.129-3.068,6.065-6.137,8.875-9.013,2.235-2.3,5.235-2.941,8.364-2.749a10.143,10.143,0,0,1,9.066,7.607,13.858,13.858,0,0,1,.255,1.6.235.235,0,0,0,.064.192V34.17a12.283,12.283,0,0,1-.192,1.406,9.806,9.806,0,0,1-5.3,7.287,16.087,16.087,0,0,1-2.107.831,9.839,9.839,0,0,1-9.577-2.365c-.7-.639-1.341-1.278-2.043-1.918a1.815,1.815,0,0,1-.064-2.557,1.913,1.913,0,0,1,2.682-.192l.575.575c.447.448.894.831,1.341,1.279a6.122,6.122,0,0,0,6.321,1.47,5.789,5.789,0,0,0,4.405-4.794c.447-3.644-1.532-6.648-5.236-7.16a6.308,6.308,0,0,0-5.555,2.11c-3.448,3.58-5.108,5.945-8.172,9.589a2.846,2.846,0,0,1-4.98-1.854,3,3,0,0,1,.7-1.982,1.121,1.121,0,0,1,.319-.256Z" transform="translate(-7.104 -3.13)"/></g></svg>