<svg xmlns="http://www.w3.org/2000/svg" xmlns:xlink="http://www.w3.org/1999/xlink" width="157.831" height="159.162" viewBox="0 0 157.831 159.162"><defs><style>.a{fill:none;}.b{fill:#040414;}.c,.i,.p,.q{fill:#fff;}.d{fill:url(#a);}.e,.f{fill:#030321;}.e{opacity:0.32;}.f{opacity:0.2;}.g{fill:#262262;}.h{fill:#0c0c35;}.i{opacity:0.18;}.j{fill:#050511;}.k{clip-path:url(#b);}.l{fill:#a7bfa2;}.m{fill:#859881;}.n{fill:#ededed;}.o{fill:#db5b54;}.p{opacity:0.4;}.q{opacity:0.71;}.r{fill:#0c1234;}.s{fill:url(#d);}.t{fill:url(#f);}</style><linearGradient id="a" y1="0.5" x2="1" y2="0.5" gradientUnits="objectBoundingBox"><stop offset="0" stop-color="#8c3a92"/><stop offset="1" stop-color="#f15e60"/></linearGradient><clipPath id="b"><ellipse class="a" cx="31.219" cy="26.774" rx="31.219" ry="26.774"/></clipPath><linearGradient id="d" x1="0" y1="0.5" x2="1" y2="0.5" xlink:href="#a"/><linearGradient id="f" x1="0" y1="0.5" x2="1" y2="0.5" xlink:href="#a"/></defs><g transform="translate(-1717.578 -213.308)"><g transform="translate(1717.578 213.308)"><ellipse class="b" cx="77.709" cy="78.375" rx="77.709" ry="78.375" transform="translate(1.207 1.206)"/><path class="c" d="M1792.181,210.316c42.917,0,77.708,35.09,77.708,78.374s-34.792,78.374-77.708,78.374-77.71-35.09-77.71-78.374,34.792-78.374,77.71-78.374m0-1.207c-43.514,0-78.916,35.7-78.916,79.581s35.4,79.581,78.916,79.581,78.915-35.7,78.915-79.581-35.4-79.581-78.915-79.581Z" transform="translate(-1713.265 -209.109)"/><path class="c" d="M1792.289,226.882l2.19-.822,1.912,1.353a.6.6,0,0,0,.944-.52l-.1-2.354,1.867-1.417a.607.607,0,0,0-.2-1.065l-2.25-.633-.759-2.229a.6.6,0,0,0-1.067-.138l-1.292,1.963-2.336.039a.605.605,0,0,0-.46.981l1.451,1.846-.684,2.253A.6.6,0,0,0,1792.289,226.882Z" transform="translate(-1697.285 -207.109)"/><path class="c" d="M1828.218,290.469l2.016.438.784,1.925a.527.527,0,0,0,.947.065l1.036-1.8,2.057-.158a.535.535,0,0,0,.354-.888l-1.375-1.551.486-2.021a.531.531,0,0,0-.729-.614l-1.886.84-1.757-1.091a.529.529,0,0,0-.8.508l.209,2.071-1.571,1.347A.536.536,0,0,0,1828.218,290.469Z" transform="translate(-1689.601 -193.318)"/><path class="c" d="M1759.49,323.838l1.383-1.677,2.155.2a.56.56,0,0,0,.52-.857l-1.155-1.845.853-2.005a.559.559,0,0,0-.647-.764l-2.1.537-1.628-1.437a.554.554,0,0,0-.919.385l-.143,2.177-1.858,1.117a.562.562,0,0,0,.079,1l2.009.808.479,2.127A.554.554,0,0,0,1759.49,323.838Z" transform="translate(-1704.501 -187.055)"/><path class="c" d="M1727.066,292.069l1.933-.725,1.689,1.195a.53.53,0,0,0,.833-.46l-.088-2.079,1.648-1.25a.536.536,0,0,0-.175-.941l-1.987-.559-.67-1.967a.528.528,0,0,0-.942-.122l-1.14,1.733-2.062.035a.534.534,0,0,0-.406.865l1.282,1.63-.6,1.988A.531.531,0,0,0,1727.066,292.069Z" transform="translate(-1710.72 -193.445)"/><path class="c" d="M1812.064,242.385l.619-.921,1.1-.008a.285.285,0,0,0,.221-.461l-.677-.878.334-1.061a.285.285,0,0,0-.367-.355l-1.038.378-.9-.647a.283.283,0,0,0-.448.241l.035,1.111-.888.661a.287.287,0,0,0,.089.5l1.061.309.348,1.056A.282.282,0,0,0,1812.064,242.385Z" transform="translate(-1693.289 -203.062)"/><path class="c" d="M1740.926,267.18l.619-.922,1.1-.007a.286.286,0,0,0,.222-.461l-.677-.878.333-1.061a.284.284,0,0,0-.365-.355l-1.038.378-.9-.648a.283.283,0,0,0-.448.241l.036,1.112-.888.66a.286.286,0,0,0,.089.5l1.06.31.349,1.056A.282.282,0,0,0,1740.926,267.18Z" transform="translate(-1707.987 -197.939)"/><path class="c" d="M1805.371,321.538l.619-.922,1.1-.007a.286.286,0,0,0,.222-.461l-.677-.878.333-1.061a.284.284,0,0,0-.365-.355l-1.038.378-.9-.648a.283.283,0,0,0-.448.241l.036,1.112-.888.66a.286.286,0,0,0,.089.5l1.059.31.349,1.056A.282.282,0,0,0,1805.371,321.538Z" transform="translate(-1694.672 -186.708)"/><ellipse class="c" cx="1.679" cy="1.693" rx="1.679" ry="1.693" transform="translate(122.851 83.753)"/><ellipse class="c" cx="1.679" cy="1.693" rx="1.679" ry="1.693" transform="translate(22.573 42.841)"/><ellipse class="c" cx="0.957" cy="0.965" rx="0.957" ry="0.965" transform="translate(118.578 110.232)"/><ellipse class="c" cx="1.679" cy="1.693" rx="1.679" ry="1.693" transform="translate(48.462 25.118)"/><ellipse class="c" cx="0.839" cy="0.847" rx="0.839" ry="0.847" transform="translate(26.282 118.412)"/><ellipse class="c" cx="0.839" cy="0.847" rx="0.839" ry="0.847" transform="translate(37.364 97.952)"/><ellipse class="c" cx="0.839" cy="0.847" rx="0.839" ry="0.847" transform="translate(86.896 142.607)"/><ellipse class="c" cx="2.028" cy="2.045" rx="2.028" ry="2.045" transform="translate(135.093 70.801)"/></g><g transform="translate(1755.744 232.397)"><path class="d" d="M1819.193,257.986l-2.6-.42c-3.644-13.117-14.167-23.029-27.009-24.81l-2.06-5.33a2.477,2.477,0,0,0-2.381-1.5,2.389,2.389,0,0,0-2.272,1.572l-1.853,5.29c-12.726,1.878-23.132,11.746-26.751,24.777l-2.587.419a7.245,7.245,0,0,0-5.789,7.278v8.923a7.247,7.247,0,0,0,5.789,7.278l4.071.659a35.61,35.61,0,0,0,6.276,10.027,5.031,5.031,0,0,0-1.952,4.133V307.71c-2.462,4.578-4.45,10-3.505,14.58,1.072,5.184,3.528,7.676,5.4,8.854a7.694,7.694,0,0,0,2.943,1.122,4.891,4.891,0,0,0,.553,1.789,3.816,3.816,0,0,0,1.195,1.312c.239.667.495,1.33.789,1.98a17.626,17.626,0,0,0,1.768,3.095,10.879,10.879,0,0,0,2.548,2.576,7.926,7.926,0,0,0,3.361,1.385,9.022,9.022,0,0,0,1.77.088,10.2,10.2,0,0,0,1.734-.214,7.945,7.945,0,0,0,3.323-1.532,8.494,8.494,0,0,0,2.358-3.009,13.088,13.088,0,0,0,1.085-3.6c.022-.133.023-.264.041-.4.017.132.018.264.039.4a13.059,13.059,0,0,0,1.083,3.607,8.485,8.485,0,0,0,2.359,3.009,7.967,7.967,0,0,0,3.324,1.53,10.318,10.318,0,0,0,1.733.214,9.018,9.018,0,0,0,1.77-.087,7.931,7.931,0,0,0,3.363-1.383,10.9,10.9,0,0,0,2.55-2.576,17.616,17.616,0,0,0,1.769-3.095c.294-.652.55-1.315.79-1.984a3.821,3.821,0,0,0,1.2-1.312,4.889,4.889,0,0,0,.553-1.791,7.677,7.677,0,0,0,2.942-1.121c1.873-1.178,4.329-3.671,5.4-8.854.945-4.575-1.044-10-3.505-14.58V296.284a5.027,5.027,0,0,0-1.962-4.14,35.665,35.665,0,0,0,6.269-10.019l4.078-.66a7.248,7.248,0,0,0,5.789-7.278v-8.923A7.246,7.246,0,0,0,1819.193,257.986Z" transform="translate(-1744.689 -224.722)"/><path class="c" d="M1785.355,226.136a2.477,2.477,0,0,1,2.381,1.5l2.06,5.33c12.842,1.781,23.365,11.693,27.009,24.81l2.6.42a7.246,7.246,0,0,1,5.789,7.278v8.923a7.248,7.248,0,0,1-5.789,7.278l-4.078.66a35.665,35.665,0,0,1-6.269,10.019,5.027,5.027,0,0,1,1.962,4.14v11.425c2.461,4.578,4.45,10,3.505,14.58-1.07,5.184-3.528,7.676-5.4,8.854a7.677,7.677,0,0,1-2.942,1.121,4.889,4.889,0,0,1-.553,1.791,3.821,3.821,0,0,1-1.2,1.312c-.24.668-.5,1.332-.79,1.984a17.616,17.616,0,0,1-1.769,3.095,10.88,10.88,0,0,1-2.55,2.576,7.931,7.931,0,0,1-3.363,1.383,8.582,8.582,0,0,1-1.318.1c-.153,0-.305,0-.453-.01a10.318,10.318,0,0,1-1.733-.214,7.967,7.967,0,0,1-3.324-1.53,8.485,8.485,0,0,1-2.359-3.009,13.059,13.059,0,0,1-1.083-3.607c-.021-.132-.022-.264-.039-.4-.018.132-.019.264-.04.4a13.124,13.124,0,0,1-1.086,3.6,8.494,8.494,0,0,1-2.358,3.009,7.96,7.96,0,0,1-3.323,1.532,10.2,10.2,0,0,1-1.734.214c-.145.006-.294.01-.446.01a8.507,8.507,0,0,1-1.324-.1,7.945,7.945,0,0,1-3.361-1.384,10.906,10.906,0,0,1-2.548-2.577,17.626,17.626,0,0,1-1.768-3.095c-.294-.65-.55-1.313-.789-1.981a3.8,3.8,0,0,1-1.195-1.31,4.891,4.891,0,0,1-.553-1.789,7.694,7.694,0,0,1-2.943-1.122c-1.873-1.178-4.329-3.671-5.4-8.854-.945-4.575,1.044-10,3.505-14.58V296.491a5.031,5.031,0,0,1,1.952-4.133,35.61,35.61,0,0,1-6.276-10.027l-4.072-.659a7.247,7.247,0,0,1-5.788-7.278v-8.923a7.245,7.245,0,0,1,5.788-7.278l2.588-.419c3.619-13.03,14.025-22.9,26.751-24.777l1.853-5.29a2.389,2.389,0,0,1,2.272-1.572m-.009-1.207h-.021a3.573,3.573,0,0,0-3.388,2.4l-1.608,4.592c-12.5,2.144-22.9,11.762-26.8,24.785l-1.833.3a8.46,8.46,0,0,0-6.8,8.469v8.923a8.46,8.46,0,0,0,6.8,8.469l3.415.553a36.769,36.769,0,0,0,5.451,8.849,6.483,6.483,0,0,0-1.485,4.226v11.124c-3.154,5.949-4.324,11.037-3.48,15.125,1.157,5.6,3.868,8.329,5.94,9.632a9.188,9.188,0,0,0,2.55,1.117,5.707,5.707,0,0,0,.531,1.355,5.047,5.047,0,0,0,1.24,1.478c.24.65.466,1.207.7,1.728a18.7,18.7,0,0,0,1.889,3.306,12.122,12.122,0,0,0,2.834,2.857,9.129,9.129,0,0,0,3.876,1.59,9.719,9.719,0,0,0,1.5.11q.253,0,.5-.011a11.455,11.455,0,0,0,1.934-.239,9.179,9.179,0,0,0,3.823-1.768,9.643,9.643,0,0,0,2.693-3.433l.036-.075.037.078a9.653,9.653,0,0,0,2.7,3.438,9.192,9.192,0,0,0,3.82,1.76,11.555,11.555,0,0,0,1.93.238c.163.007.332.011.5.011a9.726,9.726,0,0,0,1.5-.111,9.114,9.114,0,0,0,3.868-1.587,12.1,12.1,0,0,0,2.834-2.857,18.651,18.651,0,0,0,1.89-3.3c.237-.522.463-1.079.7-1.731a5.037,5.037,0,0,0,1.241-1.479,5.71,5.71,0,0,0,.532-1.355,9.2,9.2,0,0,0,2.549-1.117c2.07-1.3,4.783-4.031,5.939-9.632.844-4.089-.326-9.176-3.48-15.125V296.491a6.566,6.566,0,0,0-1.5-4.232,36.747,36.747,0,0,0,5.447-8.842l3.423-.554a8.461,8.461,0,0,0,6.8-8.469v-8.923a8.46,8.46,0,0,0-6.8-8.469l-1.841-.3c-3.937-13.146-14.449-22.783-27.084-24.831l-1.806-4.676a3.652,3.652,0,0,0-3.494-2.268Z" transform="translate(-1744.896 -224.929)"/><g transform="translate(1.207 1.207)"><g transform="translate(10.439 64.121)"><path class="c" d="M1806.944,284.824v16.83c0,1.892-1.149,3.424-2.568,3.424h-43.128c-1.421,0-2.57-1.532-2.57-3.424v-16.83c0-1.892,1.149-3.427,2.57-3.427h43.128C1805.8,281.4,1806.944,282.932,1806.944,284.824Z" transform="translate(-1753.694 -278.589)"/><path class="e" d="M1795.929,283.232h.462a1.131,1.131,0,0,1,1.084,1.173v12.567a27.052,27.052,0,0,1-3.149.492C1794.394,297.328,1795.929,283.232,1795.929,283.232Z" transform="translate(-1746.329 -278.21)"/><path class="e" d="M1761.931,283.232h-.462a1.131,1.131,0,0,0-1.083,1.173v12.567a27.048,27.048,0,0,0,3.149.492C1763.465,297.328,1761.931,283.232,1761.931,283.232Z" transform="translate(-1753.341 -278.21)"/><path d="M1804.58,306.638h-43.128c-2.1,0-3.8-2.133-3.8-4.757v-16.83c0-2.624,1.7-4.759,3.8-4.759h43.128c2.095,0,3.8,2.134,3.8,4.759v16.83C1808.378,304.5,1806.674,306.638,1804.58,306.638Zm-43.128-23.681c-.727,0-1.341.959-1.341,2.095v16.83c0,1.134.614,2.092,1.341,2.092h43.128c.725,0,1.338-.958,1.338-2.092v-16.83c0-1.135-.613-2.095-1.338-2.095Z" transform="translate(-1753.906 -278.817)"/><g transform="translate(1.249)"><path class="c" d="M1811.069,310.782c-1.629,7.878-6.872,9.476-8.759,8.848-1.525,6.973-4.633,12.42-9.76,12.42-9.108,0-7.987-10.72-7.987-10.72l0-.048c-.351.031-.726.048-1.128.048s-.78-.017-1.131-.048l0,.048s1.133,10.72-7.984,10.72c-4.647,0-7.633-4.468-9.287-10.49l0-.012c-.171-.624-.327-1.264-.469-1.917-1.891.627-7.134-.97-8.759-8.848a12.126,12.126,0,0,1-.08-4.076c1.181-8.813,9.931-19.109,9.931-19.109a22.807,22.807,0,0,1,35.566,0S1812.995,301.46,1811.069,310.782Z" transform="translate(-1755.583 -279.07)"/></g><path class="e" d="M1790.881,308.007l-9.153,1.211,0,.245-.017-.245-9.153-1.211-8.619,9.8.888,2.209a36.724,36.724,0,0,0,9.493-6.128,2.226,2.226,0,0,1,1.571-.644l5.752.074h0l.34,0v-.008l5.57-.069a2.226,2.226,0,0,1,1.571.644,36.724,36.724,0,0,0,9.493,6.128l.888-2.209Z" transform="translate(-1752.608 -273.091)"/><path class="e" d="M1761.063,290.574a49.27,49.27,0,0,0,6.927,12.673,2.957,2.957,0,0,1,.6,1.8c0,2.449.034,8.419.427,8.776.495.45,3.2-3.522,3.2-3.522l.049-8.137-9.723-14.675Z" transform="translate(-1753.201 -277.331)"/><path class="e" d="M1798.2,290.574a49.248,49.248,0,0,1-6.926,12.673,2.967,2.967,0,0,0-.6,1.8c0,2.449-.033,8.419-.426,8.776-.495.45-3.2-3.522-3.2-3.522l-.05-8.137,9.722-14.675Z" transform="translate(-1747.84 -277.331)"/><path class="e" d="M1779.5,314.346s1.811,12.292-10.384,10.5c8.993,1.319,6.062-11.977,6.062-11.977,1.784,2.048,5.455,1.472,5.455,1.472-.4,0-.78-.017-1.131-.048Z" transform="translate(-1751.537 -272.086)"/><path class="e" d="M1779.806,314.346s-1.812,12.292,10.383,10.5c-8.993,1.319-6.062-11.977-6.062-11.977-1.785,2.048-5.455,1.472-5.455,1.472.4,0,.78-.017,1.132-.048Z" transform="translate(-1749.563 -272.086)"/><path class="e" d="M1765.023,317.958c-.171-.624-.327-1.264-.469-1.917-1.891.627-7.134-.97-8.759-8.848a12.126,12.126,0,0,1-.08-4.076c.013-.008,0,.041.018.15,1.2,8.449,6.277,12.053,5.852,7.956-.96-9.252,2.41-14.781,2.41-14.781C1763.1,305.195,1764.955,317.509,1765.023,317.958Z" transform="translate(-1754.333 -275.481)"/><path class="e" d="M1793.919,317.784q.259-.938.471-1.919c1.89.627,7.134-.97,8.759-8.848a12.171,12.171,0,0,0,.08-4.076c-.013-.008,0,.042-.019.15-1.2,8.449-6.276,12.053-5.851,7.958.96-9.254-2.411-14.782-2.411-14.782C1795.846,305.02,1793.988,317.333,1793.919,317.784Z" transform="translate(-1746.412 -275.517)"/><path d="M1762.968,295.756c.052,1.16.065,2.29.1,3.417l.089,3.357c.062,2.227.18,4.44.342,6.645a49.116,49.116,0,0,0,.91,6.528,30.771,30.771,0,0,0,1.92,6.134,15.153,15.153,0,0,0,1.514,2.665,8.558,8.558,0,0,0,2,2.037,5.507,5.507,0,0,0,2.448.988,8.008,8.008,0,0,0,2.723-.142,5.711,5.711,0,0,0,2.381-1.127,5.96,5.96,0,0,0,1.624-2.144,9.944,9.944,0,0,0,.8-2.834,14.332,14.332,0,0,0,.124-1.529c.007-.256.007-.513,0-.767l-.016-.378c-.007-.117-.018-.263-.026-.338l2.507-.309c.018.206.024.343.031.508s.009.314.01.468c0,.311,0,.619-.018.928a17,17,0,0,1-.187,1.842,13.088,13.088,0,0,1-1.085,3.6,8.494,8.494,0,0,1-2.358,3.009,7.945,7.945,0,0,1-3.323,1.532,10.2,10.2,0,0,1-1.734.214,9.022,9.022,0,0,1-1.77-.088,7.94,7.94,0,0,1-3.361-1.384,10.906,10.906,0,0,1-2.548-2.577,17.7,17.7,0,0,1-1.768-3.095,30.9,30.9,0,0,1-2.079-6.683,53.029,53.029,0,0,1-.9-6.878,40.225,40.225,0,0,1,.121-6.907,29.218,29.218,0,0,1,.549-3.4A20.672,20.672,0,0,1,1762.968,295.756Z" transform="translate(-1753.17 -275.622)"/><path d="M1763.908,320.011a7.216,7.216,0,0,1-3.72-1.189c-1.873-1.178-4.329-3.671-5.4-8.854-2.045-9.908,9.659-23.822,10.157-24.41l1.857,1.851c-.112.133-11.31,13.447-9.552,21.962.873,4.221,2.768,6.185,4.205,7.089a4.038,4.038,0,0,0,2.953.752l.741,2.612A3.932,3.932,0,0,1,1763.908,320.011Z" transform="translate(-1754.547 -277.729)"/><path d="M1758.758,302.822a6.817,6.817,0,0,0,.384,2.162,4.519,4.519,0,0,0,1.026,1.694,3.434,3.434,0,0,0,1.508.876,5.226,5.226,0,0,0,1.735.168l-.309,2.712a7.455,7.455,0,0,1-2.242-1.03,5.347,5.347,0,0,1-1.7-1.9,5.845,5.845,0,0,1-.638-2.378A7.246,7.246,0,0,1,1758.758,302.822Z" transform="translate(-1753.728 -274.162)"/><path d="M1785.073,312.874a2.468,2.468,0,0,1-.432.722,4.287,4.287,0,0,1-.588.586,5.653,5.653,0,0,1-1.39.823,8.283,8.283,0,0,1-6.11,0,5.638,5.638,0,0,1-1.391-.823,4.429,4.429,0,0,1-.588-.586,2.5,2.5,0,0,1-.432-.722,6.743,6.743,0,0,0,1.4.405,13.255,13.255,0,0,0,1.357.182c.9.082,1.794.1,2.708.1s1.809-.021,2.707-.1a13.324,13.324,0,0,0,1.359-.182A6.754,6.754,0,0,0,1785.073,312.874Z" transform="translate(-1750.499 -272.086)"/><path d="M1798.012,295.756a20.492,20.492,0,0,1,.989,3.292,29.492,29.492,0,0,1,.55,3.405,40.261,40.261,0,0,1,.12,6.908,53.116,53.116,0,0,1-.9,6.879,30.915,30.915,0,0,1-2.08,6.683,17.616,17.616,0,0,1-1.769,3.095,10.9,10.9,0,0,1-2.55,2.576,7.931,7.931,0,0,1-3.363,1.383,9.018,9.018,0,0,1-1.77.087,10.318,10.318,0,0,1-1.733-.214,7.967,7.967,0,0,1-3.324-1.53,8.485,8.485,0,0,1-2.359-3.009,13.026,13.026,0,0,1-1.083-3.607,16.956,16.956,0,0,1-.183-1.844c-.015-.309-.019-.617-.017-.928,0-.154,0-.311.011-.469s.013-.3.032-.507l2.506.314c-.009.075-.021.221-.027.338l-.017.378c-.006.255-.007.512,0,.767a13.924,13.924,0,0,0,.122,1.529,9.894,9.894,0,0,0,.8,2.834,5.938,5.938,0,0,0,1.624,2.143,5.742,5.742,0,0,0,2.382,1.126,8.083,8.083,0,0,0,2.726.144,5.51,5.51,0,0,0,2.449-.987,8.555,8.555,0,0,0,2-2.036,15.212,15.212,0,0,0,1.514-2.665,30.71,30.71,0,0,0,1.921-6.134,49.152,49.152,0,0,0,.91-6.53c.162-2.2.28-4.417.342-6.645l.091-3.358C1797.946,298.046,1797.959,296.916,1798.012,295.756Z" transform="translate(-1749.591 -275.622)"/><path d="M1795.535,320.011a3.941,3.941,0,0,1-1.242-.187l.742-2.612a4.035,4.035,0,0,0,2.951-.752c1.437-.9,3.333-2.868,4.205-7.089,1.758-8.515-9.438-21.829-9.552-21.962l1.857-1.851c.5.588,12.2,14.5,10.157,24.41-1.072,5.184-3.528,7.676-5.4,8.854A7.216,7.216,0,0,1,1795.535,320.011Z" transform="translate(-1746.677 -277.729)"/><path d="M1799.424,302.822a7.211,7.211,0,0,1,.234,2.3,5.845,5.845,0,0,1-.638,2.378,5.349,5.349,0,0,1-1.7,1.9,7.444,7.444,0,0,1-2.242,1.03l-.309-2.712a5.223,5.223,0,0,0,1.735-.168,3.427,3.427,0,0,0,1.508-.876,4.522,4.522,0,0,0,1.027-1.694A6.858,6.858,0,0,0,1799.424,302.822Z" transform="translate(-1746.236 -274.162)"/><g transform="translate(8.543 30.465)"><path class="c" d="M1776.786,309.693c-4.333,5.842-11.37,9.127-11.37,9.127-3.581-.4-3.3-4.1-2.916-5.11a27.311,27.311,0,0,0,10.421-8.318Z" transform="translate(-1761.491 -304.096)"/><path class="f" d="M1772.813,305.391c-.1.14-.964.415-.964,1.211,0,1.841-2.733,2.91-2.733,2.91-.753,1.8,1.526,3.385,1.526,3.385a18.731,18.731,0,0,1-7.139,4.68,4.558,4.558,0,0,1-.693-.132,3.281,3.281,0,0,0,2.5,1.373s7.037-3.284,11.37-9.127Z" transform="translate(-1761.383 -304.096)"/><path d="M1765.676,319.919l-.205-.024a4,4,0,0,1-3.25-2.037,5.618,5.618,0,0,1-.317-4.255l.13-.345.323-.132a26.751,26.751,0,0,0,10.081-8.053l.561-.757,4.98,5.541-.439.592a34.32,34.32,0,0,1-11.673,9.379Zm-2.392-5.346a3.787,3.787,0,0,0,.3,2.406,2.414,2.414,0,0,0,1.849,1.18,33.7,33.7,0,0,0,10.425-8.2l-2.753-3.066A28.237,28.237,0,0,1,1763.285,314.573Z" transform="translate(-1761.627 -304.318)"/><path d="M1767.944,316.341a4.936,4.936,0,0,1-3.582-5.263l.785.111-.393-.056.393.054a4.022,4.022,0,0,0,3,4.323Z" transform="translate(-1761.066 -302.921)"/><path d="M1770.68,314.379a4.96,4.96,0,0,1-3.788-4.952l.792.065a4.05,4.05,0,0,0,3.2,4.057Z" transform="translate(-1760.54 -303.262)"/><path d="M1772.98,312.369a4.936,4.936,0,0,1-3.583-5.263l.785.111-.393-.055.393.054a4.022,4.022,0,0,0,3,4.323Z" transform="translate(-1760.025 -303.742)"/></g><g transform="translate(8.133 7.157)"><path class="c" d="M1769.571,302.883c-4.948-5.236-7.774-14.164-7.774-14.164.717-3.823,4-2.945,4.89-2.436,0,0,2.262,7.615,7.212,12.85Z" transform="translate(-1761.183 -284.832)"/><path class="f" d="M1773.816,298.9c-.12-.125-.289-1.079-1.021-1.156a3.127,3.127,0,0,0-2.119.776,1.62,1.62,0,0,1-2.387-.425,59.352,59.352,0,0,1-5.122-10.691c.051-.267.464-.229.538-.454a3.657,3.657,0,0,0-1.5,2.559s2.338,7.9,7.287,13.14Z" transform="translate(-1761.099 -284.599)"/><path d="M1769.625,304.2l-.5-.531c-5.029-5.32-7.658-13.755-7.768-14.111l-.066-.217.042-.226a4.81,4.81,0,0,1,2.419-3.673,3.843,3.843,0,0,1,3.423-.071l.29.167.1.34c.022.077,2.259,7.8,7,12.813l.641.679Zm-6.694-14.966c.428,1.3,2.792,8.087,6.809,12.667l3.084-2.673a37.541,37.541,0,0,1-6.658-12.44,2.575,2.575,0,0,0-1.737.206A3.1,3.1,0,0,0,1762.93,289.231Z" transform="translate(-1761.288 -285.001)"/><path d="M1763.7,292.7l-.743-.3c1.45-4.234,5.147-3.362,5.184-3.352l-.179.837.089-.419-.088.419C1767.839,289.857,1764.9,289.186,1763.7,292.7Z" transform="translate(-1760.943 -284.182)"/><path d="M1765.192,295.835l-.743-.3c1.444-4.216,4.884-3.609,4.919-3.6l-.139.846.069-.422-.067.422C1769.116,292.758,1766.4,292.306,1765.192,295.835Z" transform="translate(-1760.635 -283.576)"/><path d="M1766.862,298.514l-.743-.3c1.452-4.233,5.147-3.36,5.185-3.352l-.179.837.089-.419-.088.419C1771,295.67,1768.066,295,1766.862,298.514Z" transform="translate(-1760.29 -282.98)"/></g><g transform="translate(36.152 7.157)"><path class="c" d="M1789.827,302.883c4.949-5.236,7.775-14.164,7.775-14.164-.717-3.823-4-2.945-4.892-2.436,0,0-2.262,7.615-7.211,12.85Z" transform="translate(-1784.304 -284.832)"/><path class="f" d="M1785.5,298.9c.118-.125.289-1.079,1.02-1.156a3.133,3.133,0,0,1,2.12.776,1.62,1.62,0,0,0,2.386-.425,59.416,59.416,0,0,0,5.121-10.691c-.05-.267-.465-.229-.538-.454a3.657,3.657,0,0,1,1.5,2.559s-2.337,7.9-7.287,13.14Z" transform="translate(-1784.304 -284.599)"/><path d="M1790.083,304.2l-5.574-4.83.642-.679c4.749-5.024,6.977-12.736,7-12.813l.1-.34.29-.167a3.84,3.84,0,0,1,3.422.071,4.811,4.811,0,0,1,2.419,3.673l.042.226-.066.217c-.11.356-2.739,8.791-7.768,14.111Zm-3.2-4.971,3.084,2.673c4.018-4.58,6.38-11.366,6.81-12.667a3.1,3.1,0,0,0-1.5-2.239,2.58,2.58,0,0,0-1.739-.206A37.534,37.534,0,0,1,1786.885,299.226Z" transform="translate(-1784.509 -285.001)"/><path d="M1794.513,292.7c-1.2-3.515-4.139-2.844-4.263-2.814l-.177-.837c.037-.01,3.733-.882,5.184,3.352Z" transform="translate(-1783.359 -284.182)"/><path d="M1792.976,295.835c-1.218-3.552-3.924-3.078-4.037-3.056l-.138-.846c.034-.006,3.474-.612,4.918,3.6Z" transform="translate(-1783.622 -283.576)"/><path d="M1791.351,298.514c-1.211-3.534-4.138-2.845-4.263-2.814l-.178-.837c.038-.01,3.735-.881,5.185,3.352Z" transform="translate(-1784.013 -282.98)"/></g><g transform="translate(33.324 30.465)"><path class="c" d="M1783.041,309.693c4.333,5.842,11.37,9.127,11.37,9.127,3.582-.4,3.3-4.1,2.916-5.11a27.3,27.3,0,0,1-10.42-8.318Z" transform="translate(-1781.984 -304.096)"/><path class="f" d="M1786.907,305.391c.1.14.963.415.963,1.211,0,1.841,2.733,2.91,2.733,2.91.753,1.8-1.526,3.385-1.526,3.385a18.731,18.731,0,0,0,7.139,4.68,4.553,4.553,0,0,0,.693-.132,3.281,3.281,0,0,1-2.5,1.373s-7.037-3.284-11.37-9.127Z" transform="translate(-1781.984 -304.096)"/><path d="M1794.467,319.919l-.189-.089a34.308,34.308,0,0,1-11.674-9.379l-.439-.592,4.98-5.541.561.757a26.654,26.654,0,0,0,10.081,8.053l.323.132.132.345a5.63,5.63,0,0,1-.317,4.255,4,4,0,0,1-3.25,2.037Zm-10.179-9.961a33.7,33.7,0,0,0,10.425,8.2,2.412,2.412,0,0,0,1.849-1.18,3.787,3.787,0,0,0,.3-2.406,28.226,28.226,0,0,1-9.816-7.68Z" transform="translate(-1782.165 -304.318)"/><path d="M1790.051,316.341l-.2-.83a4.022,4.022,0,0,0,3-4.323l.787-.11A4.937,4.937,0,0,1,1790.051,316.341Z" transform="translate(-1780.578 -302.921)"/><path d="M1787.348,314.379l-.2-.83a4.05,4.05,0,0,0,3.2-4.057l.792-.065A4.96,4.96,0,0,1,1787.348,314.379Z" transform="translate(-1781.136 -303.262)"/><path d="M1785.014,312.369l-.2-.83a4,4,0,0,0,3-4.322l.787-.111A4.937,4.937,0,0,1,1785.014,312.369Z" transform="translate(-1781.618 -303.742)"/></g><path class="c" d="M1792.789,301.821v7.419a4.376,4.376,0,0,1-4.192,4.54h-15.725a4.376,4.376,0,0,1-4.192-4.54v-7.419a4.375,4.375,0,0,1,4.192-4.539H1788.6A4.375,4.375,0,0,1,1792.789,301.821Z" transform="translate(-1751.627 -275.307)"/><path class="e" d="M1792.789,301.024v5.1a4.375,4.375,0,0,1-4.192,4.539h-15.725a4.372,4.372,0,0,1-4.191-4.515v2.322a4.377,4.377,0,0,0,4.192,4.54H1788.6a4.376,4.376,0,0,0,4.192-4.54v-7.444Z" transform="translate(-1751.627 -274.534)"/><path d="M1788.733,314.844h-15.725a5.257,5.257,0,0,1-5.03-5.448v-7.419a5.258,5.258,0,0,1,5.03-5.448h15.725a5.258,5.258,0,0,1,5.031,5.448V309.4A5.257,5.257,0,0,1,1788.733,314.844Zm-15.725-16.5a3.5,3.5,0,0,0-3.353,3.631V309.4a3.5,3.5,0,0,0,3.353,3.632h15.725a3.5,3.5,0,0,0,3.353-3.632v-7.419a3.5,3.5,0,0,0-3.353-3.631Z" transform="translate(-1751.772 -275.463)"/><g transform="translate(21.129 27.213)"><ellipse class="g" cx="2.18" cy="2.361" rx="2.18" ry="2.361" transform="translate(0.528 0.572)"/><path class="h" d="M1774.676,302.1a2.276,2.276,0,0,0-2.18,2.361,2.435,2.435,0,0,0,.8,1.827,4.769,4.769,0,0,1-.32-1.474,1.711,1.711,0,0,1,3.4,0,5.73,5.73,0,0,1-.217,1.374,2.445,2.445,0,0,0,.7-1.727A2.276,2.276,0,0,0,1774.676,302.1Z" transform="translate(-1771.968 -301.525)"/><path class="i" d="M1774.676,306.857a2.276,2.276,0,0,0,2.18-2.361,2.437,2.437,0,0,0-.8-1.827,4.782,4.782,0,0,1,.32,1.474,1.7,1.7,0,1,1-3.4,0,5.73,5.73,0,0,1,.217-1.374,2.445,2.445,0,0,0-.7,1.727A2.276,2.276,0,0,0,1774.676,306.857Z" transform="translate(-1771.968 -301.407)"/><path d="M1774.767,307.491a2.943,2.943,0,1,1,2.709-2.935A2.832,2.832,0,0,1,1774.767,307.491Zm0-4.723a1.794,1.794,0,1,0,1.652,1.788A1.726,1.726,0,0,0,1774.767,302.768Z" transform="translate(-1772.058 -301.623)"/></g><g transform="translate(31.672 27.213)"><ellipse class="g" cx="2.18" cy="2.361" rx="2.18" ry="2.361" transform="translate(0.529 0.572)"/><path class="h" d="M1783.414,302.1a2.276,2.276,0,0,1,2.18,2.361,2.435,2.435,0,0,1-.8,1.827,4.769,4.769,0,0,0,.32-1.474,1.711,1.711,0,0,0-3.4,0,5.73,5.73,0,0,0,.217,1.374,2.445,2.445,0,0,1-.7-1.727A2.276,2.276,0,0,1,1783.414,302.1Z" transform="translate(-1780.706 -301.525)"/><path class="i" d="M1783.414,306.857a2.276,2.276,0,0,1-2.18-2.361,2.437,2.437,0,0,1,.8-1.827,4.818,4.818,0,0,0-.32,1.474,1.7,1.7,0,1,0,3.4,0,5.73,5.73,0,0,0-.217-1.374,2.445,2.445,0,0,1,.7,1.727A2.276,2.276,0,0,1,1783.414,306.857Z" transform="translate(-1780.706 -301.407)"/><path d="M1783.5,307.491a2.943,2.943,0,1,1,2.709-2.935A2.832,2.832,0,0,1,1783.5,307.491Zm0-4.723a1.794,1.794,0,1,0,1.652,1.788A1.726,1.726,0,0,0,1783.5,302.768Z" transform="translate(-1780.796 -301.623)"/></g><path d="M1782.911,313.781h-1.057v-2.5a.523.523,0,0,0-.5-.542h-1.044a1.629,1.629,0,0,1-1.558-1.688v-7.462a.523.523,0,0,0-.5-.542h-1.022a1.628,1.628,0,0,1-1.558-1.688v-2.073h1.057v2.073a.524.524,0,0,0,.5.543h1.022a1.628,1.628,0,0,1,1.558,1.687v7.462a.524.524,0,0,0,.5.543h1.044a1.628,1.628,0,0,1,1.558,1.687Z" transform="translate(-1750.183 -275.307)"/><path class="e" d="M1770.484,294.8a36.38,36.38,0,0,0,10.571,1.4,35.28,35.28,0,0,0,11.333-1.646l1.909-4.238a29.254,29.254,0,0,1-13.261,2.927c-6.422,0-13.857-3.277-13.857-3.277Z" transform="translate(-1751.938 -276.819)"/></g><path class="c" d="M1801.783,282.318c2.514,4.509-3.949,12.928-19.661,12.928s-22.176-8.419-19.661-12.928c0,0,4.389,7.545,19.661,7.545S1801.783,282.318,1801.783,282.318Z" transform="translate(-1742.582 -214.278)"/><path class="c" d="M1782.121,294.672c-14.65,0-21.259-7.319-20.045-11.962a4.045,4.045,0,0,1,.385-.964s4.391,7.545,19.661,7.545,19.661-7.545,19.661-7.545a3.988,3.988,0,0,1,.386.964C1803.38,287.353,1796.77,294.672,1782.121,294.672Z" transform="translate(-1742.582 -214.396)"/><path class="c" d="M1802.362,275.261l4.969-.8a5.8,5.8,0,0,0,4.664-5.863v-8.923a5.8,5.8,0,0,0-4.664-5.863l-4.969-.8Z" transform="translate(-1734.229 -220.335)"/><path class="c" d="M1756.623,275.261l-4.969-.8a5.8,5.8,0,0,1-4.664-5.863v-8.923a5.8,5.8,0,0,1,4.664-5.863l4.969-.8Z" transform="translate(-1745.67 -220.335)"/><path class="e" d="M1755,270.7c-3.2.014-5.83-1.421-5.83-4.356v-8.924a6.259,6.259,0,0,1,.951-3.331,5.981,5.981,0,0,0-3.134,5.356v8.923a5.8,5.8,0,0,0,4.664,5.863l4.969.8-1.186-3.059Z" transform="translate(-1745.67 -220.111)"/><path class="e" d="M1803.98,270.768c3.2.013,5.83-1.423,5.83-4.357v-8.924a6.244,6.244,0,0,0-.951-3.33,5.979,5.979,0,0,1,3.135,5.355v8.923a5.8,5.8,0,0,1-4.664,5.863l-4.969.8,1.185-3.059Z" transform="translate(-1734.229 -220.097)"/><path d="M1758.171,277.206l-6.486-1.05a7.247,7.247,0,0,1-5.789-7.278v-8.923a7.245,7.245,0,0,1,5.789-7.278l6.486-1.051Zm-2.644-22.257-3.451.559a4.427,4.427,0,0,0-3.538,4.448v8.923a4.428,4.428,0,0,0,3.538,4.448l3.451.559Z" transform="translate(-1745.896 -220.62)"/><path d="M1754.093,266.4h-2.1a2.151,2.151,0,0,1-2.059-2.23v-3.09a.772.772,0,0,0-.738-.8h-2.2V258.85h2.2a2.152,2.152,0,0,1,2.06,2.23v3.09a.771.771,0,0,0,.737.8h2.1Z" transform="translate(-1745.67 -219.127)"/><path d="M1801.267,277.206v-25.58l6.486,1.051a7.246,7.246,0,0,1,5.789,7.278v8.923a7.248,7.248,0,0,1-5.789,7.278Zm2.643-22.257v18.935l3.452-.559a4.428,4.428,0,0,0,3.537-4.448v-8.923a4.427,4.427,0,0,0-3.537-4.448Z" transform="translate(-1734.455 -220.62)"/><path d="M1806.562,266.4h-2.1v-1.431h2.1a.771.771,0,0,0,.737-.8v-3.09a2.152,2.152,0,0,1,2.059-2.23h2.2v1.431h-2.2a.771.771,0,0,0-.737.8v3.09A2.152,2.152,0,0,1,1806.562,266.4Z" transform="translate(-1733.796 -219.127)"/><path class="c" d="M1815.23,266.34a35.45,35.45,0,0,1-6.708,20.936,29.768,29.768,0,0,1-48.981.057,35.436,35.436,0,0,1-6.75-20.993c0-18.675,13.976-33.814,31.218-33.814S1815.23,247.665,1815.23,266.34Z" transform="translate(-1744.471 -224.566)"/><g transform="translate(8.125 17.023)"><ellipse class="j" cx="31.219" cy="26.774" rx="31.219" ry="26.774"/><g class="k"><g transform="translate(-1.734 -7.818)"><g transform="translate(0 23.522)"><path class="l" d="M1753.81,268.085a3.762,3.762,0,0,0,7.123-.559,13.119,13.119,0,0,0,.321-3.358c-.111-5.7-5.093-8.324-8.491-10.945-.644-.5-1.77.179-1.54.924a94.305,94.305,0,0,1,2.318,12.911,3.774,3.774,0,0,0,.269,1.027Z" transform="translate(-1751.193 -253.052)"/><path class="m" d="M1754.589,257.429s4.153,2.37,4.006,5.672-1.046,3.277-1.2,3.248-.677.141-.9-1.17S1757.514,261.01,1754.589,257.429Z" transform="translate(-1750.491 -252.148)"/><g transform="translate(55.965)"><path class="l" d="M1805.022,268.085a3.762,3.762,0,0,1-7.123-.559,13.114,13.114,0,0,1-.322-3.358c.111-5.7,5.093-8.324,8.492-10.945.645-.5,1.769.179,1.54.924a93.974,93.974,0,0,0-2.318,12.911,3.756,3.756,0,0,1-.269,1.027Z" transform="translate(-1797.574 -253.052)"/><path class="m" d="M1803.207,257.429s-4.153,2.37-4.007,5.672,1.046,3.277,1.2,3.248.677.141.906-1.17S1800.281,261.01,1803.207,257.429Z" transform="translate(-1797.239 -252.148)"/></g></g><path class="l" d="M1807.307,267.707c.647-27.627-23.916-27.634-24.52-27.63s-25.167,0-24.52,27.63c0,0-1.573,25.1,24.508,25.11h.023C1808.879,292.8,1807.307,267.707,1807.307,267.707Z" transform="translate(-1749.734 -232.211)"/><g transform="translate(28.255)"><path class="c" d="M1784.06,242.278a.621.621,0,0,0,.016-.064c.009-.045.016-.089.021-.134s.007-.06.01-.09,0-.075,0-.113v-.113a.589.589,0,0,0-.01-.089c0-.031-.012-.089-.021-.134a.242.242,0,0,0-.016-.065c-.012-.051-.025-.1-.042-.152,0-.011-.007-.019-.011-.03-.017-.048-.035-.1-.055-.146l-3-6.568a1.751,1.751,0,0,0-3.183,0l-3,6.568c-.023.048-.039.1-.056.147,0,.01-.008.019-.012.029-.017.051-.03.1-.042.153,0,.022-.011.043-.014.065a1.233,1.233,0,0,0-.021.133c0,.045-.007.06-.01.091s0,.075,0,.113v.113a.605.605,0,0,0,.01.09,1.1,1.1,0,0,0,.021.133.282.282,0,0,0,.014.065c.012.051.025.1.042.153a.073.073,0,0,0,.012.029,1.547,1.547,0,0,0,.056.148l3,6.566a1.751,1.751,0,0,0,3.183,0l3-6.566c.022-.049.039-.1.055-.147,0-.01.009-.019.011-.029C1784.035,242.38,1784.048,242.327,1784.06,242.278Z" transform="translate(-1774.609 -233.558)"/><path d="M1779.358,235.8l2.764,6.046-.073.142v.07l-2.692,5.889-2.762-6.04.069-.133v-.086l2.693-5.889m0-2.246a1.753,1.753,0,0,0-1.59,1.021l-3,6.568c-.023.048-.039.1-.056.147,0,.01-.008.019-.012.029-.017.051-.03.1-.042.153,0,.022-.011.043-.014.065a1.233,1.233,0,0,0-.021.133c0,.045-.007.06-.01.091s0,.075,0,.113v.113a.605.605,0,0,0,.01.09,1.1,1.1,0,0,0,.021.133.282.282,0,0,0,.014.065c.012.051.025.1.042.153a.073.073,0,0,0,.012.029,1.547,1.547,0,0,0,.056.148l3,6.566a1.751,1.751,0,0,0,3.183,0l3-6.566c.022-.049.039-.1.055-.147,0-.01.009-.019.011-.029.016-.054.03-.107.042-.156a.621.621,0,0,0,.016-.064c.009-.045.015-.089.021-.134l.01-.09c0-.03,0-.075,0-.113v-.113a.589.589,0,0,0-.01-.089c0-.031-.012-.089-.021-.134a.242.242,0,0,0-.016-.065c-.012-.051-.025-.1-.042-.152,0-.011-.007-.019-.011-.03-.017-.048-.035-.1-.055-.146l-3-6.568a1.751,1.751,0,0,0-1.593-1.021Z" transform="translate(-1774.609 -233.558)"/></g><path class="m" d="M1802.414,272.786s-5.219,11.185-20.325,10.911h-.021c-15.107.274-20.324-10.911-20.324-10.911,5.245,12.99,18.653,12.265,20.321,12.344h.028C1783.761,285.051,1797.169,285.776,1802.414,272.786Z" transform="translate(-1749.012 -225.453)"/><g transform="translate(16.545 14.562)"><g transform="translate(0.41)"><path d="M1773.211,250.5a10.138,10.138,0,0,0-6.494,3.056.235.235,0,0,1-.381-.262,7.3,7.3,0,0,1,3.022-3.439,4.659,4.659,0,0,1,3.925.285A.191.191,0,0,1,1773.211,250.5Z" transform="translate(-1765.024 -244.816)"/><path d="M1781.94,246.439a10.133,10.133,0,0,1,6.278,3.48.235.235,0,0,0,.4-.235,7.3,7.3,0,0,0-2.788-3.632,4.656,4.656,0,0,0-3.935.023A.191.191,0,0,0,1781.94,246.439Z" transform="translate(-1761.828 -245.626)"/><g transform="translate(0 8.735)"><path class="c" d="M1778.754,256.417a7.371,7.371,0,0,0-6.213-3,7.508,7.508,0,0,0-5.887,3.684,8.783,8.783,0,0,0-.155,8.438,7.5,7.5,0,0,0,6.92,3.947,7.685,7.685,0,0,0,6.385-4.882A8.746,8.746,0,0,0,1778.754,256.417Z" transform="translate(-1765.192 -252.753)"/><path d="M1778.6,256.707l-.369-.4a3.355,3.355,0,0,0-.456-.448,5.87,5.87,0,0,0-.653-.518,7.609,7.609,0,0,0-2.027-1,7.406,7.406,0,0,0-2.862-.276l-.43.046c-.133.025-.256.062-.386.092l-.395.093-.4.148-.409.153-.395.206a4.966,4.966,0,0,0-.78.474,7.315,7.315,0,0,0-2.488,2.985,8.615,8.615,0,0,0-.741,4.13,7.424,7.424,0,0,0,5.013,6.732,6.369,6.369,0,0,0,4.24.031,7.552,7.552,0,0,0,3.271-2.264l.309-.362c.092-.128.171-.263.257-.393a4.98,4.98,0,0,0,.46-.789c.118-.272.269-.543.354-.8l.254-.835a9.069,9.069,0,0,0,.169-3c-.041-.449-.159-.858-.226-1.24-.124-.368-.238-.707-.34-1.012l-.373-.775a5.327,5.327,0,0,0-.323-.543l-.286-.442Zm.429-.341.3.483a5.443,5.443,0,0,1,.351.579l.387.831c.114.322.223.687.35,1.079.069.407.187.841.226,1.315a9.531,9.531,0,0,1-.221,3.2l-.264.831c-.108.316-.259.571-.391.865a5.386,5.386,0,0,1-.5.831c-.092.136-.179.278-.276.411l-.331.379a7.938,7.938,0,0,1-3.486,2.353,6.725,6.725,0,0,1-4.462-.083,8.255,8.255,0,0,1-3.7-2.739,8.7,8.7,0,0,1-1.7-4.268,9.442,9.442,0,0,1,.543-4.527,8.121,8.121,0,0,1,2.588-3.447,5.939,5.939,0,0,1,.87-.573l.446-.251.465-.2c.156-.063.305-.129.462-.187l.493-.136c.162-.042.33-.09.484-.124l.427-.06.42-.059c.093-.008.034,0,.058,0l.1,0,.115,0,.227.006a4.471,4.471,0,0,1,.871.072,5.2,5.2,0,0,1,.812.16c.254.087.5.164.735.252a7.762,7.762,0,0,1,2.156,1.368,7.106,7.106,0,0,1,.676.664,3.7,3.7,0,0,1,.429.519l.327.439Z" transform="translate(-1765.244 -252.865)"/><path d="M1775.207,261.341a2.981,2.981,0,1,1-2.98-2.98A2.981,2.981,0,0,1,1775.207,261.341Z" transform="translate(-1764.418 -251.73)"/><path class="c" d="M1772.127,260.1a.983.983,0,1,1-.983-.985A.984.984,0,0,1,1772.127,260.1Z" transform="translate(-1764.229 -251.574)"/><g transform="translate(17.312 0.192)"><path class="c" d="M1781.394,256.417a7.374,7.374,0,0,1,6.214-3,7.509,7.509,0,0,1,5.887,3.684,8.784,8.784,0,0,1,.153,8.438,7.5,7.5,0,0,1-6.919,3.947,7.685,7.685,0,0,1-6.385-4.882A8.747,8.747,0,0,1,1781.394,256.417Z" transform="translate(-1779.555 -252.945)"/><path d="M1781.211,256.334l.348-.445a3.825,3.825,0,0,1,.44-.507,6.393,6.393,0,0,1,.688-.642,8.013,8.013,0,0,1,2.168-1.278,6.835,6.835,0,0,1,3.269-.382l.428.062c.151.034.31.081.467.123l.475.133c.152.057.3.122.45.183l.453.193.434.246a5.66,5.66,0,0,1,.848.562,8.023,8.023,0,0,1,2.592,3.346,9.121,9.121,0,0,1,.59,4.464,8.625,8.625,0,0,1-1.685,4.241,7.852,7.852,0,0,1-3.69,2.653,7.033,7.033,0,0,1-4.376.051,7.817,7.817,0,0,1-3.449-2.273l-.331-.372c-.1-.131-.185-.269-.278-.4a5.209,5.209,0,0,1-.5-.816c-.134-.288-.288-.544-.4-.848l-.274-.829a9.472,9.472,0,0,1-.255-3.173c.034-.474.146-.907.21-1.315.122-.393.228-.758.338-1.082l.378-.835a5.212,5.212,0,0,1,.35-.58Zm.434.334-.288.43a4.7,4.7,0,0,0-.322.544c-.106.227-.227.487-.363.778l-.328,1.016c-.062.384-.175.793-.21,1.24a9.021,9.021,0,0,0,.2,2.978l.265.831c.083.244.239.516.357.781a4.835,4.835,0,0,0,.463.776c.086.127.167.258.258.385l.31.352a7.406,7.406,0,0,0,3.232,2.185,6.687,6.687,0,0,0,4.155,0,7.253,7.253,0,0,0,3.54-2.5,7.524,7.524,0,0,0,1.449-4.117,8.278,8.278,0,0,0-.788-4.069,7.208,7.208,0,0,0-2.491-2.883,4.782,4.782,0,0,0-.757-.463l-.384-.2-.4-.151-.39-.145-.375-.089c-.125-.029-.24-.065-.371-.091l-.428-.047c-.142-.014-.283-.028-.422-.043.084.008.018,0,.034,0-.034,0-.082,0-.082,0h-.279a3.466,3.466,0,0,0-.719.03,11.683,11.683,0,0,0-1.325.238,7.935,7.935,0,0,0-2.041.915,5.257,5.257,0,0,0-.665.5,3.418,3.418,0,0,0-.467.436Z" transform="translate(-1779.592 -253.024)"/></g><path d="M1789.618,261.18a2.98,2.98,0,1,1-2.98-2.98A2.981,2.981,0,0,1,1789.618,261.18Z" transform="translate(-1761.44 -251.763)"/><path class="c" d="M1786.539,259.936a.984.984,0,1,1-.985-.983A.984.984,0,0,1,1786.539,259.936Z" transform="translate(-1761.251 -251.607)"/><path class="n" d="M1779.584,262.922a8.1,8.1,0,0,0,.489-2.049,10.373,10.373,0,0,1-.377,1.094,7.683,7.683,0,0,1-6.356,4.976,7.436,7.436,0,0,1-6.887-4.023,8.281,8.281,0,0,1-.732-1.98,8.088,8.088,0,0,0,.835,2.991,7.379,7.379,0,0,0,6.771,3.949A7.719,7.719,0,0,0,1779.584,262.922Z" transform="translate(-1765.146 -251.211)"/><path class="n" d="M1780.583,262.979a7.958,7.958,0,0,1-.495-2.014,7.982,7.982,0,0,0,.3.963,7.594,7.594,0,0,0,6.3,4.846,7.4,7.4,0,0,0,6.828-3.918,7.9,7.9,0,0,0,.725-1.927,8.687,8.687,0,0,1-.866,3.083,7.131,7.131,0,0,1-6.674,3.674A7.375,7.375,0,0,1,1780.583,262.979Z" transform="translate(-1762.177 -251.199)"/></g></g><g transform="translate(0 26.17)"><path d="M1764.906,271.173a5.407,5.407,0,0,0,2.24,3.633,23.109,23.109,0,0,0,28.429,1.395,7.588,7.588,0,0,0,2.385-2.4,3.291,3.291,0,0,0,.084-3.257,3.5,3.5,0,0,0-2.912-1.442,13.345,13.345,0,0,0-3.333.535,30.318,30.318,0,0,1-16.324-.816c-2.034-.685-4.076-1.6-6.22-1.494S1764.837,269.027,1764.906,271.173Z" transform="translate(-1764.905 -267.315)"/><path d="M1774.341,279.279s.163.017.447.059.683.134,1.16.186c.238.03.493.063.761.109s.559.052.852.1c.589.08,1.221.1,1.851.153.631.011,1.263.051,1.857.03.3-.014.586.012.858-.011s.532-.028.772-.034c.483-.006.88-.064,1.167-.068s.451-.014.451-.014-.151.063-.419.163a8.1,8.1,0,0,1-1.134.355c-.239.057-.5.116-.777.168a7.817,7.817,0,0,1-.881.116,7.405,7.405,0,0,1-.95.064h-.983l-.979-.1a7.49,7.49,0,0,1-.937-.158,8.072,8.072,0,0,1-.866-.2c-.274-.08-.529-.165-.761-.245a8.246,8.246,0,0,1-1.087-.463C1774.486,279.357,1774.341,279.279,1774.341,279.279Z" transform="translate(-1762.955 -264.843)"/><path class="o" d="M1780.412,274.542a10.623,10.623,0,0,0-7.328,2.436,20.092,20.092,0,0,0,13.862.354A10.634,10.634,0,0,0,1780.412,274.542Z" transform="translate(-1763.215 -265.825)"/></g><g transform="translate(26.139 25.704)"><path class="c" d="M1789.479,276.411l-1.373.921c-.441.3-.927-.162-1.083-1.024a3.126,3.126,0,0,1-.046-.7l.308-6.784c.041-.909.453-1.572.92-1.483a.84.84,0,0,1,.534.506l2.439,4.941a2.869,2.869,0,0,1-.018,2.336,1.011,1.011,0,0,1-.308.364Z" transform="translate(-1786.484 -266.844)"/><path d="M1787.914,278a.951.951,0,0,1-.372-.077,1.826,1.826,0,0,1-.918-1.441,3.556,3.556,0,0,1-.053-.807l.308-6.785a2.348,2.348,0,0,1,.706-1.731.965.965,0,0,1,.8-.209,1.3,1.3,0,0,1,.88.77l2.437,4.941a3.361,3.361,0,0,1-.025,2.782,1.451,1.451,0,0,1-.467.541l-2.744,1.843A.987.987,0,0,1,1787.914,278Zm.28-10.09a1.454,1.454,0,0,0-.339,1.024l-.308,6.784a2.657,2.657,0,0,0,.04.59c.088.49.279.7.338.714l2.738-1.851a.536.536,0,0,0,.147-.189,2.393,2.393,0,0,0,.011-1.888l-2.437-4.941A.507.507,0,0,0,1788.194,267.907Z" transform="translate(-1786.568 -266.928)"/></g><g transform="translate(3.011 25.704)"><path class="c" d="M1769.742,276.411l1.372.921c.442.3.928-.162,1.085-1.024a3.2,3.2,0,0,0,.045-.7l-.307-6.784c-.042-.909-.454-1.572-.921-1.483a.843.843,0,0,0-.535.506l-2.438,4.941a2.875,2.875,0,0,0,.018,2.336,1.012,1.012,0,0,0,.308.364Z" transform="translate(-1767.317 -266.845)"/><path d="M1771.475,277.995a.983.983,0,0,1-.55-.173l-2.745-1.844a1.465,1.465,0,0,1-.466-.538,3.374,3.374,0,0,1-.025-2.784l2.438-4.941a1.306,1.306,0,0,1,.884-.77.967.967,0,0,1,.793.208,2.353,2.353,0,0,1,.7,1.733l.308,6.785a3.6,3.6,0,0,1-.053.808,1.828,1.828,0,0,1-.918,1.439A.946.946,0,0,1,1771.475,277.995Zm-1.378-1.906,1.373.922c.051-.011.241-.217.33-.706a2.642,2.642,0,0,0,.04-.59l-.308-6.784c-.03-.65-.267-.992-.359-1.024a.892.892,0,0,0-.169.243l-2.437,4.941a2.39,2.39,0,0,0,.011,1.887.5.5,0,0,0,.146.188Z" transform="translate(-1767.4 -266.928)"/></g></g></g></g></g><path class="p" d="M1815.207,261.373c-.583,14.347-14.326,25.825-31.2,25.825-16.84,0-30.564-11.435-31.195-25.744-.012.315-.022.631-.022.948,0,14.787,13.978,26.774,31.22,26.774s31.219-11.987,31.219-26.774C1815.233,262.057,1815.223,261.714,1815.207,261.373Z" transform="translate(-1744.471 -218.606)"/><path class="e" d="M1802.143,282.71c-1.028,4.42-7.667,9.986-20.047,9.986s-19.018-5.566-20.045-9.986a4.045,4.045,0,0,1,.385-.964s4.391,7.545,19.661,7.545,19.661-7.545,19.661-7.545A3.988,3.988,0,0,1,1802.143,282.71Z" transform="translate(-1742.558 -214.396)"/><path class="e" d="M1807.367,277.9a29.768,29.768,0,0,1-48.981.057l.031-.077a33.178,33.178,0,0,0,24.459,10.607A33.527,33.527,0,0,0,1807.367,277.9Z" transform="translate(-1743.315 -215.194)"/><path class="p" d="M1784.015,242.521c16.954,0,30.748,10.58,31.2,25.025.007-.244.012-.49.012-.736,0-14.786-13.978-26.774-31.219-26.774s-31.22,11.988-31.22,26.774c0,.246,0,.492.012.736C1753.258,253.1,1767.059,242.521,1784.015,242.521Z" transform="translate(-1744.471 -223.014)"/><path class="g" d="M1770.826,235.748v.578a1.089,1.089,0,0,1-.566.974l-2.707,1.4a.945.945,0,0,1-1.134-.209l-.372-.4a1.126,1.126,0,0,1,.28-1.738l3.079-1.577A1,1,0,0,1,1770.826,235.748Z" transform="translate(-1741.792 -224.123)"/><path class="q" d="M1770.466,234.877c0,.03,0,.06,0,.092v.578a1.089,1.089,0,0,1-.566.974l-2.707,1.4a.943.943,0,0,1-1.133-.209l-.3-.328a1.1,1.1,0,0,0,.284.66l.372.4a.945.945,0,0,0,1.134.209l2.707-1.4a1.089,1.089,0,0,0,.566-.974V235.7A1.106,1.106,0,0,0,1770.466,234.877Z" transform="translate(-1741.791 -224.08)"/><path d="M1767.447,239.59a1.678,1.678,0,0,1-1.234-.553l-1.792-1.94,7.209-3.693v3.035a1.914,1.914,0,0,1-.991,1.7l-2.442,1.266A1.636,1.636,0,0,1,1767.447,239.59Zm-1.217-2.153.731.79a.648.648,0,0,0,.781.146l2.442-1.266a.752.752,0,0,0,.39-.67v-1.226Z" transform="translate(-1742.068 -224.385)"/><path class="g" d="M1793.242,237.113l-1.869,2.024-3.908-2.024v-2.959Z" transform="translate(-1737.307 -224.23)"/><path class="q" d="M1787.823,234.877c0,.03,0,.06,0,.092v.578a1.089,1.089,0,0,0,.566.974l2.707,1.4a.943.943,0,0,0,1.133-.209l.3-.328a1.1,1.1,0,0,1-.283.66l-.373.4a.942.942,0,0,1-1.133.209l-2.707-1.4a1.089,1.089,0,0,1-.566-.974V235.7A1.105,1.105,0,0,1,1787.823,234.877Z" transform="translate(-1737.307 -224.08)"/><path d="M1791.21,239.59a1.641,1.641,0,0,1-.75-.183l-2.441-1.266a1.913,1.913,0,0,1-.992-1.7V233.4l7.209,3.693-1.792,1.94A1.678,1.678,0,0,1,1791.21,239.59Zm-3.126-4.378v1.226a.753.753,0,0,0,.39.67l2.442,1.266a.65.65,0,0,0,.782-.146l.73-.79Z" transform="translate(-1737.398 -224.385)"/><path d="M1784.237,301.827c-17.944,0-32.541-15.809-32.541-35.243s14.6-35.244,32.541-35.244,32.54,15.81,32.54,35.244S1802.179,301.827,1784.237,301.827Zm0-67.623c-16.486,0-29.9,14.525-29.9,32.381s13.413,32.381,29.9,32.381,29.9-14.526,29.9-32.381S1800.722,234.2,1784.237,234.2Z" transform="translate(-1744.697 -224.811)"/><path d="M1784.124,294.423c-17.579,0-31.88-12.333-31.88-27.49s14.3-27.489,31.88-27.489S1816,251.776,1816,266.933,1801.7,294.423,1784.124,294.423Zm0-53.548c-16.85,0-30.559,11.69-30.559,26.058s13.708,26.058,30.559,26.058,30.559-11.69,30.559-26.058S1800.973,240.875,1784.124,240.875Z" transform="translate(-1744.584 -223.137)"/><path d="M1811.76,252.375l-.036-.045a34.856,34.856,0,0,0-56.147-.008l-1.029-.9a36.117,36.117,0,0,1,58.189-.014l.163.186,0,.292h-.66Z" transform="translate(-1744.109 -223.704)"/><path d="M1782.351,296.8c-11.813,0-18.385-4.537-20.6-8.782a6.593,6.593,0,0,1-.2-6.318l2.262,1.48a3.588,3.588,0,0,0,.235,3.43c1.76,3.38,7.608,7.327,18.295,7.327s16.533-3.947,18.293-7.327a3.588,3.588,0,0,0,.235-3.43l2.262-1.48a6.594,6.594,0,0,1-.2,6.318C1800.735,292.267,1794.162,296.8,1782.351,296.8Z" transform="translate(-1742.807 -214.405)"/><path class="p" d="M1792.889,252.873c-.554,2.469-3.345,1.9-6.855.977s-6.411-1.857-5.857-4.326,3.849-3.721,7.359-2.8S1793.443,250.4,1792.889,252.873Z" transform="translate(-1738.827 -221.694)"/><path class="p" d="M1797.771,255.954c-.5.935-1.674.5-3-.332s-2.312-1.745-1.813-2.681,1.981-1.018,3.312-.187S1798.27,255.018,1797.771,255.954Z" transform="translate(-1736.2 -220.505)"/><path class="e" d="M1752.877,259.216s6.993-20.272,31.116-20.272,30.76,20.272,30.76,20.272-5.53-18.953-30.76-18.953C1761.934,240.263,1752.877,259.216,1752.877,259.216Z" transform="translate(-1744.454 -223.24)"/><g transform="translate(32.488)"><path class="c" d="M1773.966,239.172,1778,227.658a1.557,1.557,0,0,1,2.819-.047l4.438,11.486Z" transform="translate(-1772.584 -225.762)"/><path d="M1772.821,240.326l4.492-12.825a2.389,2.389,0,0,1,2.272-1.572,2.477,2.477,0,0,1,2.381,1.5l4.949,12.807Zm6.827-12.44h-.016c-.18,0-.41.071-.468.247l-3.579,10.218,8.484-.056-3.927-10.165C1780.065,227.936,1779.8,227.886,1779.648,227.886Z" transform="translate(-1772.821 -225.929)"/></g><g transform="translate(25.679 77.342)"><circle class="d" cx="11.906" cy="11.906" r="11.906" transform="translate(2.413 2.413)"/><path d="M1781.5,292.44a11.906,11.906,0,1,1-11.906,11.906A11.905,11.905,0,0,1,1781.5,292.44m0-2.413a14.319,14.319,0,1,0,14.319,14.319,14.334,14.334,0,0,0-14.319-14.319Z" transform="translate(-1767.178 -290.027)"/><circle class="r" cx="10.332" cy="10.332" r="10.332" transform="translate(3.987 3.987)"/><g transform="translate(6.036 8.569)"><path class="s" d="M1780.947,307.18c.382,0,.676-.2.676-.474v-2.747c0-.27-.293-.473-.676-.473s-.676.2-.676.473v2.749C1780.271,306.977,1780.586,307.18,1780.947,307.18Z" transform="translate(-1770.508 -295.815)"/><path class="d" d="M1777.233,297.137a5.05,5.05,0,0,0-5.047,5.385c.136,3.019,2.434,4.866,5.453,4.708a4.227,4.227,0,0,0,3.38-1.712l-1.554-1.172a3.242,3.242,0,0,1-1.849.789,2.87,2.87,0,0,1-.27-5.724,2.638,2.638,0,0,1,2.816,2.635h0a1.287,1.287,0,0,0,1.353,1.127,1.317,1.317,0,0,0,1.238-1.262h0A4.992,4.992,0,0,0,1777.233,297.137Z" transform="translate(-1772.18 -297.129)"/><path class="t" d="M1778.312,303.789c1.1-1.081,2.141-2.162,3.131-3.177a3.626,3.626,0,0,1,2.951-.969,3.58,3.58,0,0,1,3.2,2.681,4.676,4.676,0,0,1,.089.564.087.087,0,0,0,.023.068v.385a4.227,4.227,0,0,1-.068.495,3.455,3.455,0,0,1-1.869,2.569,5.9,5.9,0,0,1-.744.293,3.475,3.475,0,0,1-3.379-.834c-.249-.226-.474-.451-.721-.676a.639.639,0,0,1-.023-.9.675.675,0,0,1,.946-.068l.2.2c.158.157.316.293.474.45a2.162,2.162,0,0,0,2.23.519,2.041,2.041,0,0,0,1.554-1.69,2.121,2.121,0,0,0-1.847-2.523,2.229,2.229,0,0,0-1.96.743c-1.216,1.262-1.8,2.095-2.884,3.38a1,1,0,0,1-1.758-.655,1.05,1.05,0,0,1,.247-.7.384.384,0,0,1,.112-.09Z" transform="translate(-1771.006 -296.615)"/></g></g></g></g></g></svg>