<svg xmlns="http://www.w3.org/2000/svg" width="32" height="32" viewBox="0 0 32 32">
  <g id="Stake_Icon" data-name="Stake Icon" transform="translate(0 0.127)">
    <rect id="Rectangle_21" data-name="Rectangle 21" width="32" height="32" transform="translate(0 -0.127)" fill="rgba(255,255,255,0)"/>
    <g id="security-safe-box" transform="translate(5 5)">
      <g id="Group_9226" data-name="Group 9226">
        <path id="Path_66" data-name="Path 66" d="M22.835,0H0V22.835H22.835ZM20.566,20.489H2.269V2.191h18.3v18.3Z" fill="#ff5e61"/>
        <path id="Path_67" data-name="Path 67" d="M63.57,45.7H46.886V62.384H63.57V45.7ZM58.435,58.479a4.258,4.258,0,1,1,4.257-4.258A4.262,4.262,0,0,1,58.435,58.479Z" transform="translate(-43.811 -42.702)" fill="#ff5e61"/>
        <path id="Path_68" data-name="Path 68" d="M168.049,116.851a3.854,3.854,0,1,0,3.854,3.854A3.859,3.859,0,0,0,168.049,116.851Zm0,6.756a2.9,2.9,0,1,1,2.2-4.79c-.029.009-.059.014-.088.026l-2.094.86a1.008,1.008,0,1,0,.766,1.865l2.093-.86c.009,0,.015-.009.023-.013s0,.006,0,.009A2.9,2.9,0,0,1,168.049,123.607Z" transform="translate(-153.425 -109.186)" fill="#ff5e61"/>
      </g>
    </g>
  </g>
</svg>
