<svg xmlns="http://www.w3.org/2000/svg" width="110.044" height="110" viewBox="0 0 110.044 110">
  <g id="Group_11049" data-name="Group 11049" transform="translate(-633.5 -160)">
    <rect id="Rectangle_60" data-name="Rectangle 60" width="8" height="23" rx="4" transform="translate(684 247)" fill="#fff"/>
    <rect id="Rectangle_61" data-name="Rectangle 61" width="8" height="23" rx="4" transform="translate(684 160)" fill="#fff" opacity="0.52"/>
    <rect id="Rectangle_62" data-name="Rectangle 62" width="8.607" height="22.746" rx="4.303" transform="translate(743.544 210.104) rotate(90)" fill="#fff" opacity="0.76"/>
    <rect id="Rectangle_63" data-name="Rectangle 63" width="8.607" height="22.746" rx="4.303" transform="translate(656.246 210.104) rotate(90)" fill="#fff" opacity="0.28"/>
    <rect id="Rectangle_64" data-name="Rectangle 64" width="8.607" height="22.746" rx="4.303" transform="translate(700.625 244.825) rotate(-30)" fill="#fff" opacity="0.92"/>
    <rect id="Rectangle_65" data-name="Rectangle 65" width="8.607" height="22.746" rx="4.303" transform="translate(656.246 168.607) rotate(-30)" fill="#fff" opacity="0.44"/>
    <rect id="Rectangle_66" data-name="Rectangle 66" width="8.607" height="22.746" rx="4.303" transform="translate(667.735 240.522) rotate(30)" fill="#fff" opacity="0.12"/>
    <rect id="Rectangle_67" data-name="Rectangle 67" width="8.607" height="22.746" rx="4.303" transform="translate(712.114 164.303) rotate(30)" fill="#fff" opacity="0.6"/>
    <rect id="Rectangle_68" data-name="Rectangle 68" width="8.607" height="22.746" rx="4.303" transform="translate(733.298 183.516) rotate(60)" fill="#fff" opacity="0.68"/>
    <rect id="Rectangle_69" data-name="Rectangle 69" width="8.607" height="22.746" rx="4.303" transform="translate(658.296 227.165) rotate(60)" fill="#fff" opacity="0.2"/>
    <rect id="Rectangle_70" data-name="Rectangle 70" width="8.607" height="22.746" rx="4.303" transform="translate(661.383 194.89) rotate(120)" fill="#fff" opacity="0.36"/>
    <rect id="Rectangle_71" data-name="Rectangle 71" width="8.607" height="22.746" rx="4.303" transform="translate(737.601 238.538) rotate(120)" fill="#fff" opacity="0.84"/>
  </g>
</svg>
