<svg width="245" height="47" fill="none" xmlns="http://www.w3.org/2000/svg"><path d="M73.656 27.41c0-6.45 4.84-11.609 11.73-11.609 6.725 0 11.318 4.998 11.318 12.254v1.29H79.89c.41 2.821 2.707 5.16 6.48 5.16 1.886 0 4.593-.807 6.07-2.177l2.624 3.789c-2.215 2.015-5.824 3.063-9.35 3.063-6.808-.08-12.058-4.676-12.058-11.77zm11.73-7.014c-3.692 0-5.332 2.741-5.578 4.918h11.155c-.164-2.096-1.64-4.918-5.578-4.918z" fill="url(#a)"/><path d="M117.21 38.535V25.072c0-3.063-1.641-4.111-4.183-4.111-2.379 0-4.183 1.29-5.168 2.66v14.995h-5.987V16.285h5.987v2.902c1.477-1.693 4.183-3.467 7.874-3.467 5.004 0 7.382 2.741 7.382 7.095v15.72h-5.905z" fill="url(#b)"/><path d="M128.037 34.182l3.609-4.999c2.214 2.258 5.659 4.112 9.925 4.112 3.691 0 5.413-1.693 5.413-3.386 0-5.401-17.963-1.693-17.963-13.221 0-5.08 4.511-9.352 11.811-9.352 5.004 0 9.105 1.451 12.14 4.273l-3.691 4.756c-2.543-2.338-5.906-3.386-9.105-3.386-2.871 0-4.429 1.21-4.429 3.064 0 4.918 17.963 1.612 17.963 13.06 0 5.643-4.101 9.835-12.468 9.835-5.987.161-10.334-1.854-13.205-4.756z" fill="url(#c)"/><path d="M178.562 38.535l-4.757-15.156-4.757 15.156h-6.398l-6.89-22.25h6.152l4.183 14.995 5.003-14.995h5.332l5.003 14.995 4.183-14.995h6.152l-6.89 22.25h-6.316z" fill="url(#d)"/><path d="M209.239 38.535v-2.338c-1.559 1.774-4.184 2.822-7.136 2.822-3.609 0-7.874-2.419-7.874-7.336 0-5.24 4.265-7.175 7.874-7.175 3.034 0 5.659.967 7.136 2.74v-2.982c0-2.257-1.969-3.708-5.004-3.708-2.46 0-4.675.886-6.562 2.66l-2.214-3.95c2.789-2.419 6.316-3.467 9.842-3.467 5.168 0 9.843 2.016 9.843 8.384v14.35h-5.905zm0-5.401v-2.741c-.985-1.29-2.871-1.935-4.758-1.935-2.378 0-4.265 1.21-4.265 3.386 0 2.096 1.887 3.305 4.265 3.305 1.887-.08 3.773-.725 4.758-2.015z" fill="url(#e)"/><path d="M227.94 35.633v11.286h-5.988V16.285h5.988v2.821c1.722-2.176 4.183-3.386 6.972-3.386 5.823 0 10.006 4.273 10.006 11.61 0 7.416-4.183 11.689-10.006 11.689-2.625.08-5.086-1.048-6.972-3.386zm10.827-8.223c0-3.79-2.297-6.45-5.742-6.45-1.886 0-4.101 1.13-5.085 2.5v7.9c.984 1.37 3.199 2.5 5.085 2.5 3.445 0 5.742-2.661 5.742-6.45z" fill="url(#f)"/><path d="M43.882 47c1.558 0 2.87-.887 2.87-1.935V33.698c0-1.048-1.312-1.935-2.87-1.935-1.559 0-2.871.887-2.871 1.935v11.367c0 1.048 1.312 1.935 2.87 1.935z" fill="url(#g)"/><path d="M21.244 0C8.531.645-.574 9.835 0 22.25c.574 12.415 10.171 20.074 22.884 19.43 6.726-.323 10.827-2.903 14.272-7.095l-6.48-4.918c-2.214 1.854-5.003 3.063-7.791 3.225-6.89.322-11.648-4.676-11.976-11.287-.328-6.53 3.855-11.931 10.745-12.254 6.726-.322 11.32 4.354 11.811 10.884.328 2.74 2.79 4.837 5.66 4.676 2.87-.162 5.085-2.419 5.167-5.24C43.636 7.497 33.793-.564 21.244 0z" fill="url(#h)"/><path d="M30.677 29.667a658.155 658.155 0 0 0 13.205-13.14c3.281-3.306 7.71-4.273 12.468-3.95 6.48.483 11.81 4.998 13.37 11.124.163.726.245 1.532.41 2.338 0 .081.081.162.081.323v1.532c-.082.645-.082 1.37-.246 2.015-1.066 4.998-3.609 8.546-7.874 10.642-.984.483-2.05.886-3.117 1.128-5.25 1.451-10.088.161-14.19-3.466-.984-.887-1.968-1.855-2.952-2.822a2.704 2.704 0 0 1-.165-3.708c.985-1.129 2.79-1.29 3.938-.242.328.242.574.564.902.806.656.645 1.312 1.29 1.968 1.854 2.707 2.5 5.906 3.225 9.35 2.177 3.528-1.048 6.07-3.386 6.48-7.014.657-5.32-2.296-9.674-7.71-10.4-3.198-.403-6.07.807-8.284 3.064-5.167 5.16-7.546 8.626-12.139 13.947-.738.725-1.804 1.37-2.953 1.45-2.378.081-4.347-1.773-4.429-4.03 0-1.129.41-2.096 1.066-2.902.164-.161.328-.242.41-.403l.41-.323z" fill="url(#i)"/><defs><linearGradient id="a" x1="151.288" y1="26.792" x2="216.693" y2="26.17" gradientUnits="userSpaceOnUse"><stop stop-color="#F15E60"/><stop offset="1" stop-color="#8C3A92"/></linearGradient><linearGradient id="b" x1="151.288" y1="26.827" x2="216.693" y2="26.205" gradientUnits="userSpaceOnUse"><stop stop-color="#F15E60"/><stop offset="1" stop-color="#8C3A92"/></linearGradient><linearGradient id="c" x1="151.253" y1="23.114" x2="216.658" y2="22.492" gradientUnits="userSpaceOnUse"><stop stop-color="#F15E60"/><stop offset="1" stop-color="#8C3A92"/></linearGradient><linearGradient id="d" x1="151.296" y1="27.57" x2="216.7" y2="26.949" gradientUnits="userSpaceOnUse"><stop stop-color="#F15E60"/><stop offset="1" stop-color="#8C3A92"/></linearGradient><linearGradient id="e" x1="151.298" y1="27.877" x2="216.703" y2="27.255" gradientUnits="userSpaceOnUse"><stop stop-color="#F15E60"/><stop offset="1" stop-color="#8C3A92"/></linearGradient><linearGradient id="f" x1="151.339" y1="32.09" x2="216.743" y2="31.468" gradientUnits="userSpaceOnUse"><stop stop-color="#F15E60"/><stop offset="1" stop-color="#8C3A92"/></linearGradient><linearGradient id="g" x1="43.86" y1="51.379" x2="43.86" y2="31.443" gradientUnits="userSpaceOnUse"><stop offset=".369" stop-color="#F15E60"/><stop offset="1" stop-color="#8C3A92"/></linearGradient><linearGradient id="h" x1="57.631" y1="31.058" x2="-14.276" y2="9.816" gradientUnits="userSpaceOnUse"><stop offset=".252" stop-color="#F15E60"/><stop offset="1" stop-color="#8C3A92"/></linearGradient><linearGradient id="i" x1="70.229" y1="17.787" x2="27.272" y2="45.008" gradientUnits="userSpaceOnUse"><stop offset=".252" stop-color="#F15E60"/><stop offset="1" stop-color="#8C3A92"/></linearGradient></defs></svg>